<?xml version="1.0" encoding="utf-8"?><svg xmlns="http://www.w3.org/2000/svg" xmlns:xlink="http://www.w3.org/1999/xlink"><symbol viewBox="0 0 12.4 15" overflow="scroll" id="email" xmlns="http://www.w3.org/2000/svg"><path d="M12.4 3.3v-.1L9.4.1C9.3 0 9.2 0 9.2 0H3.3c-.6 0-1.1.5-1.1 1.1v1.3H1.1c-.6-.1-1.1.4-1.1 1v10.5c0 .6.5 1.1 1.1 1.1h8.1c.6 0 1.1-.5 1.1-1.1v-1c0-.1-.1-.2-.2-.2h1.3c.6 0 1.1-.5 1.1-1.1l-.1-8.3zM9.4.8l2.3 2.4H9.4V.8zm.4 12.1v1c0 .4-.3.7-.7.7h-8c-.4 0-.7-.3-.7-.7V3.4c0-.4.3-.7.7-.7h1.1v8.8c0 .6.5 1.1 1.1 1.1H10c-.1.1-.2.2-.2.3zm2.2-1.3c0 .4-.3.7-.7.7h-8c-.4 0-.7-.3-.7-.7V1.1c0-.4.3-.7.7-.7H9v2.9c0 .1.1.2.2.2H12v8.1z"/></symbol></svg>